<svg id="Layer_1" enable-background="new 0 0 28 28" height="512" viewBox="0 0 28 28" width="512" xmlns="http://www.w3.org/2000/svg" xmlns:xlink="http://www.w3.org/1999/xlink"><linearGradient id="SVGID_1_" gradientTransform="matrix(1 0 0 -1 0 28)" gradientUnits="userSpaceOnUse" x1="3" x2="25" y1="14" y2="14"><stop offset="0" stop-color="#fff33b"/><stop offset=".0401" stop-color="#fee72e"/><stop offset=".1171" stop-color="#fed51b"/><stop offset=".1964" stop-color="#fdca10"/><stop offset=".2809" stop-color="#fdc70c"/><stop offset=".6685" stop-color="#f3903f"/><stop offset=".8876" stop-color="#ed683c"/><stop offset="1" stop-color="#e93e3a"/></linearGradient><switch><g><path d="m19 26h-10c-3.31 0-6-2.69-6-6l1.01-10.1c.04-1.62 1.37-2.91 2.99-2.9h14c1.66 0 3 1.34 3 3l1 9.9c.04 3.33-2.62 6.06-5.94 6.1-.02 0-.04 0-.06 0zm-12-17c-.55 0-1 .45-1 1l-1 10.1c.05 2.17 1.83 3.91 4 3.9h10c2.21 0 4-1.79 4-4l-1-9.9c.04-.57-.4-1.06-.97-1.1 0 0-.01 0-.03 0zm11 0c-.55 0-1-.45-1-1v-1c0-1.66-1.34-3-3-3s-3 1.34-3 3v1c0 .55-.45 1-1 1s-1-.45-1-1v-1c0-2.76 2.24-5 5-5s5 2.24 5 5v1c0 .55-.45 1-1 1zm-4 8c-2.76 0-5-2.24-5-5 0-.55.45-1 1-1s1 .45 1 1c0 1.66 1.34 3 3 3s3-1.34 3-3c0-.55.45-1 1-1s1 .45 1 1c0 2.76-2.24 5-5 5z" fill="url(#SVGID_1_)"/></g></switch></svg>